<svg xmlns="http://www.w3.org/2000/svg" viewBox="0 0 64 64" shape-rendering="crispEdges">
<rect x="0" y="0" width="64" height="64" fill="#2a3a2a"/><rect x="4" y="48" width="56" height="16" fill="#3a4a2a"/><rect x="6" y="50" width="52" height="14" fill="#5a6a4a"/><rect x="26" y="5" width="12" height="1" fill="#3a4a2a"/>
<rect x="23" y="6" width="18" height="1" fill="#3a4a2a"/>
<rect x="21" y="7" width="22" height="1" fill="#3a4a2a"/>
<rect x="20" y="8" width="24" height="1" fill="#3a4a2a"/>
<rect x="19" y="9" width="26" height="1" fill="#3a4a2a"/>
<rect x="17" y="10" width="30" height="1" fill="#3a4a2a"/>
<rect x="16" y="11" width="32" height="1" fill="#3a4a2a"/>
<rect x="16" y="12" width="32" height="1" fill="#3a4a2a"/>
<rect x="15" y="13" width="34" height="1" fill="#3a4a2a"/>
<rect x="14" y="14" width="36" height="1" fill="#3a4a2a"/>
<rect x="14" y="15" width="36" height="1" fill="#3a4a2a"/>
<rect x="13" y="16" width="38" height="1" fill="#3a4a2a"/>
<rect x="12" y="17" width="40" height="1" fill="#3a4a2a"/>
<rect x="12" y="18" width="40" height="1" fill="#3a4a2a"/>
<rect x="12" y="19" width="40" height="1" fill="#3a4a2a"/>
<rect x="11" y="20" width="42" height="1" fill="#3a4a2a"/>
<rect x="11" y="21" width="42" height="1" fill="#3a4a2a"/>
<rect x="11" y="22" width="42" height="1" fill="#3a4a2a"/>
<rect x="10" y="23" width="44" height="1" fill="#3a4a2a"/>
<rect x="10" y="24" width="44" height="1" fill="#3a4a2a"/>
<rect x="10" y="25" width="44" height="1" fill="#3a4a2a"/>
<rect x="10" y="26" width="44" height="1" fill="#3a4a2a"/>
<rect x="10" y="27" width="44" height="1" fill="#3a4a2a"/>
<rect x="10" y="28" width="44" height="1" fill="#3a4a2a"/>
<rect x="10" y="29" width="44" height="1" fill="#3a4a2a"/>
<rect x="10" y="30" width="44" height="1" fill="#3a4a2a"/>
<rect x="10" y="31" width="44" height="1" fill="#3a4a2a"/>
<rect x="10" y="32" width="44" height="1" fill="#3a4a2a"/>
<rect x="10" y="33" width="44" height="1" fill="#3a4a2a"/>
<rect x="11" y="34" width="42" height="1" fill="#3a4a2a"/>
<rect x="11" y="35" width="42" height="1" fill="#3a4a2a"/>
<rect x="11" y="36" width="42" height="1" fill="#3a4a2a"/>
<rect x="12" y="37" width="40" height="1" fill="#3a4a2a"/>
<rect x="12" y="38" width="40" height="1" fill="#3a4a2a"/>
<rect x="12" y="39" width="40" height="1" fill="#3a4a2a"/>
<rect x="13" y="40" width="38" height="1" fill="#3a4a2a"/>
<rect x="14" y="41" width="36" height="1" fill="#3a4a2a"/>
<rect x="14" y="42" width="36" height="1" fill="#3a4a2a"/>
<rect x="15" y="43" width="34" height="1" fill="#3a4a2a"/>
<rect x="16" y="44" width="32" height="1" fill="#3a4a2a"/>
<rect x="16" y="45" width="32" height="1" fill="#3a4a2a"/>
<rect x="17" y="46" width="30" height="1" fill="#3a4a2a"/>
<rect x="19" y="47" width="26" height="1" fill="#3a4a2a"/>
<rect x="20" y="48" width="24" height="1" fill="#3a4a2a"/>
<rect x="21" y="49" width="22" height="1" fill="#3a4a2a"/>
<rect x="23" y="50" width="18" height="1" fill="#3a4a2a"/>
<rect x="26" y="51" width="12" height="1" fill="#3a4a2a"/>
<rect x="26" y="5" width="12" height="1" fill="#5a6a4a"/>
<rect x="23" y="6" width="18" height="1" fill="#5a6a4a"/>
<rect x="22" y="7" width="20" height="1" fill="#5a6a4a"/>
<rect x="20" y="8" width="24" height="1" fill="#5a6a4a"/>
<rect x="19" y="9" width="26" height="1" fill="#5a6a4a"/>
<rect x="18" y="10" width="28" height="1" fill="#5a6a4a"/>
<rect x="17" y="11" width="30" height="1" fill="#5a6a4a"/>
<rect x="16" y="12" width="32" height="1" fill="#5a6a4a"/>
<rect x="15" y="13" width="34" height="1" fill="#5a6a4a"/>
<rect x="15" y="14" width="34" height="1" fill="#5a6a4a"/>
<rect x="14" y="15" width="36" height="1" fill="#5a6a4a"/>
<rect x="14" y="16" width="36" height="1" fill="#5a6a4a"/>
<rect x="13" y="17" width="38" height="1" fill="#5a6a4a"/>
<rect x="13" y="18" width="38" height="1" fill="#5a6a4a"/>
<rect x="12" y="19" width="40" height="1" fill="#5a6a4a"/>
<rect x="12" y="20" width="40" height="1" fill="#5a6a4a"/>
<rect x="12" y="21" width="40" height="1" fill="#5a6a4a"/>
<rect x="12" y="22" width="40" height="1" fill="#5a6a4a"/>
<rect x="11" y="23" width="42" height="1" fill="#5a6a4a"/>
<rect x="11" y="24" width="42" height="1" fill="#5a6a4a"/>
<rect x="11" y="25" width="42" height="1" fill="#5a6a4a"/>
<rect x="11" y="26" width="42" height="1" fill="#5a6a4a"/>
<rect x="11" y="27" width="42" height="1" fill="#5a6a4a"/>
<rect x="11" y="28" width="42" height="1" fill="#5a6a4a"/>
<rect x="11" y="29" width="42" height="1" fill="#5a6a4a"/>
<rect x="11" y="30" width="42" height="1" fill="#5a6a4a"/>
<rect x="11" y="31" width="42" height="1" fill="#5a6a4a"/>
<rect x="12" y="32" width="40" height="1" fill="#5a6a4a"/>
<rect x="12" y="33" width="40" height="1" fill="#5a6a4a"/>
<rect x="12" y="34" width="40" height="1" fill="#5a6a4a"/>
<rect x="12" y="35" width="40" height="1" fill="#5a6a4a"/>
<rect x="13" y="36" width="38" height="1" fill="#5a6a4a"/>
<rect x="13" y="37" width="38" height="1" fill="#5a6a4a"/>
<rect x="14" y="38" width="36" height="1" fill="#5a6a4a"/>
<rect x="14" y="39" width="36" height="1" fill="#5a6a4a"/>
<rect x="15" y="40" width="34" height="1" fill="#5a6a4a"/>
<rect x="15" y="41" width="34" height="1" fill="#5a6a4a"/>
<rect x="16" y="42" width="32" height="1" fill="#5a6a4a"/>
<rect x="17" y="43" width="30" height="1" fill="#5a6a4a"/>
<rect x="18" y="44" width="28" height="1" fill="#5a6a4a"/>
<rect x="19" y="45" width="26" height="1" fill="#5a6a4a"/>
<rect x="20" y="46" width="24" height="1" fill="#5a6a4a"/>
<rect x="22" y="47" width="20" height="1" fill="#5a6a4a"/>
<rect x="23" y="48" width="18" height="1" fill="#5a6a4a"/>
<rect x="26" y="49" width="12" height="1" fill="#5a6a4a"/>
<rect x="26" y="5" width="12" height="1" fill="#7a8a6a"/>
<rect x="24" y="6" width="16" height="1" fill="#7a8a6a"/>
<rect x="22" y="7" width="20" height="1" fill="#7a8a6a"/>
<rect x="21" y="8" width="22" height="1" fill="#7a8a6a"/>
<rect x="19" y="9" width="26" height="1" fill="#7a8a6a"/>
<rect x="18" y="10" width="28" height="1" fill="#7a8a6a"/>
<rect x="17" y="11" width="30" height="1" fill="#7a8a6a"/>
<rect x="17" y="12" width="30" height="1" fill="#7a8a6a"/>
<rect x="16" y="13" width="32" height="1" fill="#7a8a6a"/>
<rect x="15" y="14" width="34" height="1" fill="#7a8a6a"/>
<rect x="15" y="15" width="34" height="1" fill="#7a8a6a"/>
<rect x="14" y="16" width="36" height="1" fill="#7a8a6a"/>
<rect x="14" y="17" width="36" height="1" fill="#7a8a6a"/>
<rect x="13" y="18" width="38" height="1" fill="#7a8a6a"/>
<rect x="13" y="19" width="38" height="1" fill="#7a8a6a"/>
<rect x="13" y="20" width="38" height="1" fill="#7a8a6a"/>
<rect x="13" y="21" width="38" height="1" fill="#7a8a6a"/>
<rect x="12" y="22" width="40" height="1" fill="#7a8a6a"/>
<rect x="12" y="23" width="40" height="1" fill="#7a8a6a"/>
<rect x="12" y="24" width="40" height="1" fill="#7a8a6a"/>
<rect x="12" y="25" width="40" height="1" fill="#7a8a6a"/>
<rect x="12" y="26" width="40" height="1" fill="#7a8a6a"/>
<rect x="12" y="27" width="40" height="1" fill="#7a8a6a"/>
<rect x="12" y="28" width="40" height="1" fill="#7a8a6a"/>
<rect x="12" y="29" width="40" height="1" fill="#7a8a6a"/>
<rect x="12" y="30" width="40" height="1" fill="#7a8a6a"/>
<rect x="13" y="31" width="38" height="1" fill="#7a8a6a"/>
<rect x="13" y="32" width="38" height="1" fill="#7a8a6a"/>
<rect x="13" y="33" width="38" height="1" fill="#7a8a6a"/>
<rect x="13" y="34" width="38" height="1" fill="#7a8a6a"/>
<rect x="14" y="35" width="36" height="1" fill="#7a8a6a"/>
<rect x="14" y="36" width="36" height="1" fill="#7a8a6a"/>
<rect x="15" y="37" width="34" height="1" fill="#7a8a6a"/>
<rect x="15" y="38" width="34" height="1" fill="#7a8a6a"/>
<rect x="16" y="39" width="32" height="1" fill="#7a8a6a"/>
<rect x="17" y="40" width="30" height="1" fill="#7a8a6a"/>
<rect x="17" y="41" width="30" height="1" fill="#7a8a6a"/>
<rect x="18" y="42" width="28" height="1" fill="#7a8a6a"/>
<rect x="19" y="43" width="26" height="1" fill="#7a8a6a"/>
<rect x="21" y="44" width="22" height="1" fill="#7a8a6a"/>
<rect x="22" y="45" width="20" height="1" fill="#7a8a6a"/>
<rect x="24" y="46" width="16" height="1" fill="#7a8a6a"/>
<rect x="26" y="47" width="12" height="1" fill="#7a8a6a"/>
<rect x="12" y="18" width="40" height="6" fill="#3a4a2a"/><rect x="13" y="19" width="38" height="4" fill="#5a6a4a"/><rect x="8" y="24" width="6" height="10" fill="#5a6a4a"/><rect x="9" y="25" width="4" height="8" fill="#7a8a6a"/><rect x="50" y="24" width="6" height="10" fill="#5a6a4a"/><rect x="51" y="25" width="4" height="8" fill="#7a8a6a"/><rect x="20" y="24" width="6" height="5" fill="#1a1a1a"/><rect x="38" y="24" width="6" height="5" fill="#1a1a1a"/><rect x="21" y="25" width="4" height="3" fill="#884400"/><rect x="39" y="25" width="4" height="3" fill="#884400"/><rect x="27" y="30" width="10" height="8" fill="#3a4a2a"/><rect x="28" y="31" width="8" height="6" fill="#5a6a4a"/><rect x="29" y="34" width="2" height="3" fill="#3a4a2a"/><rect x="33" y="34" width="2" height="3" fill="#3a4a2a"/><rect x="20" y="40" width="4" height="10" fill="#f0e8d8"/><rect x="19" y="46" width="3" height="6" fill="#f0e8d8"/><rect x="21" y="41" width="2" height="8" fill="#e8e0d0"/><rect x="40" y="40" width="4" height="10" fill="#f0e8d8"/><rect x="42" y="46" width="3" height="6" fill="#f0e8d8"/><rect x="41" y="41" width="2" height="8" fill="#e8e0d0"/>
</svg>