<svg xmlns="http://www.w3.org/2000/svg" viewBox="0 0 64 64" shape-rendering="crispEdges">
<rect x="0" y="0" width="64" height="64" fill="#2a2a3a"/><rect x="52" y="0" width="4" height="64" fill="#5a4030"/><rect x="53" y="2" width="2" height="60" fill="#7a6050"/><rect x="50" y="3" width="8" height="1" fill="#3a2a4a"/>
<rect x="49" y="4" width="10" height="1" fill="#3a2a4a"/>
<rect x="48" y="5" width="12" height="1" fill="#3a2a4a"/>
<rect x="47" y="6" width="14" height="1" fill="#3a2a4a"/>
<rect x="47" y="7" width="14" height="1" fill="#3a2a4a"/>
<rect x="46" y="8" width="16" height="1" fill="#3a2a4a"/>
<rect x="46" y="9" width="16" height="1" fill="#3a2a4a"/>
<rect x="46" y="10" width="16" height="1" fill="#3a2a4a"/>
<rect x="46" y="11" width="16" height="1" fill="#3a2a4a"/>
<rect x="46" y="12" width="16" height="1" fill="#3a2a4a"/>
<rect x="47" y="13" width="14" height="1" fill="#3a2a4a"/>
<rect x="47" y="14" width="14" height="1" fill="#3a2a4a"/>
<rect x="48" y="15" width="12" height="1" fill="#3a2a4a"/>
<rect x="49" y="16" width="10" height="1" fill="#3a2a4a"/>
<rect x="50" y="17" width="8" height="1" fill="#3a2a4a"/>
<rect x="50" y="3" width="8" height="1" fill="#6a4a8a"/>
<rect x="49" y="4" width="10" height="1" fill="#6a4a8a"/>
<rect x="48" y="5" width="12" height="1" fill="#6a4a8a"/>
<rect x="48" y="6" width="12" height="1" fill="#6a4a8a"/>
<rect x="47" y="7" width="14" height="1" fill="#6a4a8a"/>
<rect x="47" y="8" width="14" height="1" fill="#6a4a8a"/>
<rect x="47" y="9" width="14" height="1" fill="#6a4a8a"/>
<rect x="47" y="10" width="14" height="1" fill="#6a4a8a"/>
<rect x="47" y="11" width="14" height="1" fill="#6a4a8a"/>
<rect x="48" y="12" width="12" height="1" fill="#6a4a8a"/>
<rect x="48" y="13" width="12" height="1" fill="#6a4a8a"/>
<rect x="49" y="14" width="10" height="1" fill="#6a4a8a"/>
<rect x="50" y="15" width="8" height="1" fill="#6a4a8a"/>
<rect x="51" y="3" width="6" height="1" fill="#9a6aba"/>
<rect x="50" y="4" width="8" height="1" fill="#9a6aba"/>
<rect x="49" y="5" width="10" height="1" fill="#9a6aba"/>
<rect x="48" y="6" width="12" height="1" fill="#9a6aba"/>
<rect x="48" y="7" width="12" height="1" fill="#9a6aba"/>
<rect x="48" y="8" width="12" height="1" fill="#9a6aba"/>
<rect x="48" y="9" width="12" height="1" fill="#9a6aba"/>
<rect x="48" y="10" width="12" height="1" fill="#9a6aba"/>
<rect x="49" y="11" width="10" height="1" fill="#9a6aba"/>
<rect x="50" y="12" width="8" height="1" fill="#9a6aba"/>
<rect x="51" y="13" width="6" height="1" fill="#9a6aba"/>
<rect x="52" y="6" width="4" height="4" fill="#ba8ada"/><rect x="48" y="4" width="1" height="1" fill="#cc99ff"/><rect x="60" y="8" width="1" height="1" fill="#cc99ff"/><rect x="50" y="14" width="1" height="1" fill="#cc99ff"/><rect x="8" y="50" width="40" height="14" fill="#3a4a2a"/><rect x="10" y="52" width="36" height="12" fill="#5a6a4a"/><rect x="22" y="11" width="12" height="1" fill="#3a4a2a"/>
<rect x="20" y="12" width="16" height="1" fill="#3a4a2a"/>
<rect x="19" y="13" width="18" height="1" fill="#3a4a2a"/>
<rect x="17" y="14" width="22" height="1" fill="#3a4a2a"/>
<rect x="16" y="15" width="24" height="1" fill="#3a4a2a"/>
<rect x="15" y="16" width="26" height="1" fill="#3a4a2a"/>
<rect x="14" y="17" width="28" height="1" fill="#3a4a2a"/>
<rect x="14" y="18" width="28" height="1" fill="#3a4a2a"/>
<rect x="13" y="19" width="30" height="1" fill="#3a4a2a"/>
<rect x="12" y="20" width="32" height="1" fill="#3a4a2a"/>
<rect x="12" y="21" width="32" height="1" fill="#3a4a2a"/>
<rect x="12" y="22" width="32" height="1" fill="#3a4a2a"/>
<rect x="11" y="23" width="34" height="1" fill="#3a4a2a"/>
<rect x="11" y="24" width="34" height="1" fill="#3a4a2a"/>
<rect x="11" y="25" width="34" height="1" fill="#3a4a2a"/>
<rect x="10" y="26" width="36" height="1" fill="#3a4a2a"/>
<rect x="10" y="27" width="36" height="1" fill="#3a4a2a"/>
<rect x="10" y="28" width="36" height="1" fill="#3a4a2a"/>
<rect x="10" y="29" width="36" height="1" fill="#3a4a2a"/>
<rect x="10" y="30" width="36" height="1" fill="#3a4a2a"/>
<rect x="10" y="31" width="36" height="1" fill="#3a4a2a"/>
<rect x="10" y="32" width="36" height="1" fill="#3a4a2a"/>
<rect x="10" y="33" width="36" height="1" fill="#3a4a2a"/>
<rect x="10" y="34" width="36" height="1" fill="#3a4a2a"/>
<rect x="11" y="35" width="34" height="1" fill="#3a4a2a"/>
<rect x="11" y="36" width="34" height="1" fill="#3a4a2a"/>
<rect x="11" y="37" width="34" height="1" fill="#3a4a2a"/>
<rect x="12" y="38" width="32" height="1" fill="#3a4a2a"/>
<rect x="12" y="39" width="32" height="1" fill="#3a4a2a"/>
<rect x="12" y="40" width="32" height="1" fill="#3a4a2a"/>
<rect x="13" y="41" width="30" height="1" fill="#3a4a2a"/>
<rect x="14" y="42" width="28" height="1" fill="#3a4a2a"/>
<rect x="14" y="43" width="28" height="1" fill="#3a4a2a"/>
<rect x="15" y="44" width="26" height="1" fill="#3a4a2a"/>
<rect x="16" y="45" width="24" height="1" fill="#3a4a2a"/>
<rect x="17" y="46" width="22" height="1" fill="#3a4a2a"/>
<rect x="19" y="47" width="18" height="1" fill="#3a4a2a"/>
<rect x="20" y="48" width="16" height="1" fill="#3a4a2a"/>
<rect x="22" y="49" width="12" height="1" fill="#3a4a2a"/>
<rect x="23" y="11" width="10" height="1" fill="#5a6a4a"/>
<rect x="20" y="12" width="16" height="1" fill="#5a6a4a"/>
<rect x="19" y="13" width="18" height="1" fill="#5a6a4a"/>
<rect x="18" y="14" width="20" height="1" fill="#5a6a4a"/>
<rect x="17" y="15" width="22" height="1" fill="#5a6a4a"/>
<rect x="16" y="16" width="24" height="1" fill="#5a6a4a"/>
<rect x="15" y="17" width="26" height="1" fill="#5a6a4a"/>
<rect x="14" y="18" width="28" height="1" fill="#5a6a4a"/>
<rect x="14" y="19" width="28" height="1" fill="#5a6a4a"/>
<rect x="13" y="20" width="30" height="1" fill="#5a6a4a"/>
<rect x="13" y="21" width="30" height="1" fill="#5a6a4a"/>
<rect x="12" y="22" width="32" height="1" fill="#5a6a4a"/>
<rect x="12" y="23" width="32" height="1" fill="#5a6a4a"/>
<rect x="12" y="24" width="32" height="1" fill="#5a6a4a"/>
<rect x="11" y="25" width="34" height="1" fill="#5a6a4a"/>
<rect x="11" y="26" width="34" height="1" fill="#5a6a4a"/>
<rect x="11" y="27" width="34" height="1" fill="#5a6a4a"/>
<rect x="11" y="28" width="34" height="1" fill="#5a6a4a"/>
<rect x="11" y="29" width="34" height="1" fill="#5a6a4a"/>
<rect x="11" y="30" width="34" height="1" fill="#5a6a4a"/>
<rect x="11" y="31" width="34" height="1" fill="#5a6a4a"/>
<rect x="11" y="32" width="34" height="1" fill="#5a6a4a"/>
<rect x="11" y="33" width="34" height="1" fill="#5a6a4a"/>
<rect x="12" y="34" width="32" height="1" fill="#5a6a4a"/>
<rect x="12" y="35" width="32" height="1" fill="#5a6a4a"/>
<rect x="12" y="36" width="32" height="1" fill="#5a6a4a"/>
<rect x="13" y="37" width="30" height="1" fill="#5a6a4a"/>
<rect x="13" y="38" width="30" height="1" fill="#5a6a4a"/>
<rect x="14" y="39" width="28" height="1" fill="#5a6a4a"/>
<rect x="14" y="40" width="28" height="1" fill="#5a6a4a"/>
<rect x="15" y="41" width="26" height="1" fill="#5a6a4a"/>
<rect x="16" y="42" width="24" height="1" fill="#5a6a4a"/>
<rect x="17" y="43" width="22" height="1" fill="#5a6a4a"/>
<rect x="18" y="44" width="20" height="1" fill="#5a6a4a"/>
<rect x="19" y="45" width="18" height="1" fill="#5a6a4a"/>
<rect x="20" y="46" width="16" height="1" fill="#5a6a4a"/>
<rect x="23" y="47" width="10" height="1" fill="#5a6a4a"/>
<rect x="23" y="11" width="10" height="1" fill="#7a8a6a"/>
<rect x="21" y="12" width="14" height="1" fill="#7a8a6a"/>
<rect x="19" y="13" width="18" height="1" fill="#7a8a6a"/>
<rect x="18" y="14" width="20" height="1" fill="#7a8a6a"/>
<rect x="17" y="15" width="22" height="1" fill="#7a8a6a"/>
<rect x="16" y="16" width="24" height="1" fill="#7a8a6a"/>
<rect x="15" y="17" width="26" height="1" fill="#7a8a6a"/>
<rect x="15" y="18" width="26" height="1" fill="#7a8a6a"/>
<rect x="14" y="19" width="28" height="1" fill="#7a8a6a"/>
<rect x="14" y="20" width="28" height="1" fill="#7a8a6a"/>
<rect x="13" y="21" width="30" height="1" fill="#7a8a6a"/>
<rect x="13" y="22" width="30" height="1" fill="#7a8a6a"/>
<rect x="13" y="23" width="30" height="1" fill="#7a8a6a"/>
<rect x="12" y="24" width="32" height="1" fill="#7a8a6a"/>
<rect x="12" y="25" width="32" height="1" fill="#7a8a6a"/>
<rect x="12" y="26" width="32" height="1" fill="#7a8a6a"/>
<rect x="12" y="27" width="32" height="1" fill="#7a8a6a"/>
<rect x="12" y="28" width="32" height="1" fill="#7a8a6a"/>
<rect x="12" y="29" width="32" height="1" fill="#7a8a6a"/>
<rect x="12" y="30" width="32" height="1" fill="#7a8a6a"/>
<rect x="12" y="31" width="32" height="1" fill="#7a8a6a"/>
<rect x="12" y="32" width="32" height="1" fill="#7a8a6a"/>
<rect x="13" y="33" width="30" height="1" fill="#7a8a6a"/>
<rect x="13" y="34" width="30" height="1" fill="#7a8a6a"/>
<rect x="13" y="35" width="30" height="1" fill="#7a8a6a"/>
<rect x="14" y="36" width="28" height="1" fill="#7a8a6a"/>
<rect x="14" y="37" width="28" height="1" fill="#7a8a6a"/>
<rect x="15" y="38" width="26" height="1" fill="#7a8a6a"/>
<rect x="15" y="39" width="26" height="1" fill="#7a8a6a"/>
<rect x="16" y="40" width="24" height="1" fill="#7a8a6a"/>
<rect x="17" y="41" width="22" height="1" fill="#7a8a6a"/>
<rect x="18" y="42" width="20" height="1" fill="#7a8a6a"/>
<rect x="19" y="43" width="18" height="1" fill="#7a8a6a"/>
<rect x="21" y="44" width="14" height="1" fill="#7a8a6a"/>
<rect x="23" y="45" width="10" height="1" fill="#7a8a6a"/>
<rect x="18" y="26" width="8" height="3" fill="#3a4a2a"/><rect x="30" y="26" width="8" height="3" fill="#3a4a2a"/><rect x="19" y="27" width="6" height="1" fill="#6a4a8a"/><rect x="31" y="27" width="6" height="1" fill="#6a4a8a"/><rect x="25" y="32" width="6" height="5" fill="#3a4a2a"/><rect x="26" y="33" width="4" height="3" fill="#5a6a4a"/><rect x="20" y="40" width="3" height="6" fill="#f0e8d8"/><rect x="33" y="40" width="3" height="6" fill="#f0e8d8"/><rect x="16" y="48" width="4" height="3" fill="#e0d8c8"/><rect x="22" y="50" width="3" height="3" fill="#e0d8c8"/><rect x="28" y="48" width="4" height="3" fill="#e0d8c8"/><rect x="34" y="50" width="3" height="3" fill="#e0d8c8"/>
</svg>