<svg xmlns="http://www.w3.org/2000/svg" viewBox="0 0 64 64" shape-rendering="crispEdges">
<rect x="0" y="0" width="64" height="64" fill="#1a2030"/><rect x="19" y="50" width="26" height="14" fill="#6a6a70"/><rect x="17" y="52" width="2" height="12" fill="#6a6a70"/><rect x="45" y="52" width="2" height="12" fill="#6a6a70"/><rect x="20" y="51" width="3" height="13" fill="#8a8a90"/><rect x="26" y="44" width="12" height="20" fill="#5a4030"/><rect x="27" y="44" width="10" height="20" fill="#8a6a50"/><rect x="28" y="44" width="8" height="20" fill="#b89878"/><rect x="28" y="44" width="6" height="20" fill="#d0b898"/><rect x="26" y="15" width="12" height="1" fill="#5a4030"/>
<rect x="24" y="16" width="16" height="1" fill="#5a4030"/>
<rect x="22" y="17" width="20" height="1" fill="#5a4030"/>
<rect x="21" y="18" width="22" height="1" fill="#5a4030"/>
<rect x="20" y="19" width="24" height="1" fill="#5a4030"/>
<rect x="19" y="20" width="26" height="1" fill="#5a4030"/>
<rect x="18" y="21" width="28" height="1" fill="#5a4030"/>
<rect x="18" y="22" width="28" height="1" fill="#5a4030"/>
<rect x="17" y="23" width="30" height="1" fill="#5a4030"/>
<rect x="17" y="24" width="30" height="1" fill="#5a4030"/>
<rect x="16" y="25" width="32" height="1" fill="#5a4030"/>
<rect x="16" y="26" width="32" height="1" fill="#5a4030"/>
<rect x="15" y="27" width="34" height="1" fill="#5a4030"/>
<rect x="15" y="28" width="34" height="1" fill="#5a4030"/>
<rect x="15" y="29" width="34" height="1" fill="#5a4030"/>
<rect x="15" y="30" width="34" height="1" fill="#5a4030"/>
<rect x="15" y="31" width="34" height="1" fill="#5a4030"/>
<rect x="15" y="32" width="34" height="1" fill="#5a4030"/>
<rect x="15" y="33" width="34" height="1" fill="#5a4030"/>
<rect x="15" y="34" width="34" height="1" fill="#5a4030"/>
<rect x="15" y="35" width="34" height="1" fill="#5a4030"/>
<rect x="16" y="36" width="32" height="1" fill="#5a4030"/>
<rect x="16" y="37" width="32" height="1" fill="#5a4030"/>
<rect x="17" y="38" width="30" height="1" fill="#5a4030"/>
<rect x="17" y="39" width="30" height="1" fill="#5a4030"/>
<rect x="18" y="40" width="28" height="1" fill="#5a4030"/>
<rect x="18" y="41" width="28" height="1" fill="#5a4030"/>
<rect x="19" y="42" width="26" height="1" fill="#5a4030"/>
<rect x="20" y="43" width="24" height="1" fill="#5a4030"/>
<rect x="21" y="44" width="22" height="1" fill="#5a4030"/>
<rect x="22" y="45" width="20" height="1" fill="#5a4030"/>
<rect x="24" y="46" width="16" height="1" fill="#5a4030"/>
<rect x="26" y="47" width="12" height="1" fill="#5a4030"/>
<rect x="26" y="15" width="12" height="1" fill="#8a6a50"/>
<rect x="24" y="16" width="16" height="1" fill="#8a6a50"/>
<rect x="23" y="17" width="18" height="1" fill="#8a6a50"/>
<rect x="21" y="18" width="22" height="1" fill="#8a6a50"/>
<rect x="20" y="19" width="24" height="1" fill="#8a6a50"/>
<rect x="20" y="20" width="24" height="1" fill="#8a6a50"/>
<rect x="19" y="21" width="26" height="1" fill="#8a6a50"/>
<rect x="18" y="22" width="28" height="1" fill="#8a6a50"/>
<rect x="18" y="23" width="28" height="1" fill="#8a6a50"/>
<rect x="17" y="24" width="30" height="1" fill="#8a6a50"/>
<rect x="17" y="25" width="30" height="1" fill="#8a6a50"/>
<rect x="17" y="26" width="30" height="1" fill="#8a6a50"/>
<rect x="16" y="27" width="32" height="1" fill="#8a6a50"/>
<rect x="16" y="28" width="32" height="1" fill="#8a6a50"/>
<rect x="16" y="29" width="32" height="1" fill="#8a6a50"/>
<rect x="16" y="30" width="32" height="1" fill="#8a6a50"/>
<rect x="16" y="31" width="32" height="1" fill="#8a6a50"/>
<rect x="16" y="32" width="32" height="1" fill="#8a6a50"/>
<rect x="16" y="33" width="32" height="1" fill="#8a6a50"/>
<rect x="17" y="34" width="30" height="1" fill="#8a6a50"/>
<rect x="17" y="35" width="30" height="1" fill="#8a6a50"/>
<rect x="17" y="36" width="30" height="1" fill="#8a6a50"/>
<rect x="18" y="37" width="28" height="1" fill="#8a6a50"/>
<rect x="18" y="38" width="28" height="1" fill="#8a6a50"/>
<rect x="19" y="39" width="26" height="1" fill="#8a6a50"/>
<rect x="20" y="40" width="24" height="1" fill="#8a6a50"/>
<rect x="20" y="41" width="24" height="1" fill="#8a6a50"/>
<rect x="21" y="42" width="22" height="1" fill="#8a6a50"/>
<rect x="23" y="43" width="18" height="1" fill="#8a6a50"/>
<rect x="24" y="44" width="16" height="1" fill="#8a6a50"/>
<rect x="26" y="45" width="12" height="1" fill="#8a6a50"/>
<rect x="27" y="15" width="10" height="1" fill="#b89878"/>
<rect x="25" y="16" width="14" height="1" fill="#b89878"/>
<rect x="23" y="17" width="18" height="1" fill="#b89878"/>
<rect x="22" y="18" width="20" height="1" fill="#b89878"/>
<rect x="21" y="19" width="22" height="1" fill="#b89878"/>
<rect x="20" y="20" width="24" height="1" fill="#b89878"/>
<rect x="19" y="21" width="26" height="1" fill="#b89878"/>
<rect x="19" y="22" width="26" height="1" fill="#b89878"/>
<rect x="18" y="23" width="28" height="1" fill="#b89878"/>
<rect x="18" y="24" width="28" height="1" fill="#b89878"/>
<rect x="18" y="25" width="28" height="1" fill="#b89878"/>
<rect x="17" y="26" width="30" height="1" fill="#b89878"/>
<rect x="17" y="27" width="30" height="1" fill="#b89878"/>
<rect x="17" y="28" width="30" height="1" fill="#b89878"/>
<rect x="17" y="29" width="30" height="1" fill="#b89878"/>
<rect x="17" y="30" width="30" height="1" fill="#b89878"/>
<rect x="17" y="31" width="30" height="1" fill="#b89878"/>
<rect x="17" y="32" width="30" height="1" fill="#b89878"/>
<rect x="18" y="33" width="28" height="1" fill="#b89878"/>
<rect x="18" y="34" width="28" height="1" fill="#b89878"/>
<rect x="18" y="35" width="28" height="1" fill="#b89878"/>
<rect x="19" y="36" width="26" height="1" fill="#b89878"/>
<rect x="19" y="37" width="26" height="1" fill="#b89878"/>
<rect x="20" y="38" width="24" height="1" fill="#b89878"/>
<rect x="21" y="39" width="22" height="1" fill="#b89878"/>
<rect x="22" y="40" width="20" height="1" fill="#b89878"/>
<rect x="23" y="41" width="18" height="1" fill="#b89878"/>
<rect x="25" y="42" width="14" height="1" fill="#b89878"/>
<rect x="27" y="43" width="10" height="1" fill="#b89878"/>
<rect x="27" y="16" width="10" height="1" fill="#d0b898"/>
<rect x="25" y="17" width="14" height="1" fill="#d0b898"/>
<rect x="24" y="18" width="16" height="1" fill="#d0b898"/>
<rect x="23" y="19" width="18" height="1" fill="#d0b898"/>
<rect x="22" y="20" width="20" height="1" fill="#d0b898"/>
<rect x="21" y="21" width="22" height="1" fill="#d0b898"/>
<rect x="20" y="22" width="24" height="1" fill="#d0b898"/>
<rect x="20" y="23" width="24" height="1" fill="#d0b898"/>
<rect x="20" y="24" width="24" height="1" fill="#d0b898"/>
<rect x="19" y="25" width="26" height="1" fill="#d0b898"/>
<rect x="19" y="26" width="26" height="1" fill="#d0b898"/>
<rect x="19" y="27" width="26" height="1" fill="#d0b898"/>
<rect x="19" y="28" width="26" height="1" fill="#d0b898"/>
<rect x="19" y="29" width="26" height="1" fill="#d0b898"/>
<rect x="19" y="30" width="26" height="1" fill="#d0b898"/>
<rect x="19" y="31" width="26" height="1" fill="#d0b898"/>
<rect x="20" y="32" width="24" height="1" fill="#d0b898"/>
<rect x="20" y="33" width="24" height="1" fill="#d0b898"/>
<rect x="20" y="34" width="24" height="1" fill="#d0b898"/>
<rect x="21" y="35" width="22" height="1" fill="#d0b898"/>
<rect x="22" y="36" width="20" height="1" fill="#d0b898"/>
<rect x="23" y="37" width="18" height="1" fill="#d0b898"/>
<rect x="24" y="38" width="16" height="1" fill="#d0b898"/>
<rect x="25" y="39" width="14" height="1" fill="#d0b898"/>
<rect x="27" y="40" width="10" height="1" fill="#d0b898"/>
<rect x="28" y="19" width="8" height="1" fill="#e8d0b8"/>
<rect x="27" y="20" width="10" height="1" fill="#e8d0b8"/>
<rect x="26" y="21" width="12" height="1" fill="#e8d0b8"/>
<rect x="25" y="22" width="14" height="1" fill="#e8d0b8"/>
<rect x="25" y="23" width="14" height="1" fill="#e8d0b8"/>
<rect x="24" y="24" width="16" height="1" fill="#e8d0b8"/>
<rect x="24" y="25" width="16" height="1" fill="#e8d0b8"/>
<rect x="24" y="26" width="16" height="1" fill="#e8d0b8"/>
<rect x="24" y="27" width="16" height="1" fill="#e8d0b8"/>
<rect x="24" y="28" width="16" height="1" fill="#e8d0b8"/>
<rect x="25" y="29" width="14" height="1" fill="#e8d0b8"/>
<rect x="25" y="30" width="14" height="1" fill="#e8d0b8"/>
<rect x="26" y="31" width="12" height="1" fill="#e8d0b8"/>
<rect x="27" y="32" width="10" height="1" fill="#e8d0b8"/>
<rect x="28" y="33" width="8" height="1" fill="#e8d0b8"/>
<rect x="17" y="21" width="30" height="4" fill="#8a6a50"/><rect x="18" y="20" width="28" height="3" fill="#b89878"/><rect x="14" y="25" width="2" height="5" fill="#b89878"/><rect x="13" y="26" width="1" height="3" fill="#b89878"/><rect x="15" y="27" width="1" height="1" fill="#8a6a50"/><rect x="48" y="25" width="2" height="5" fill="#b89878"/><rect x="50" y="26" width="1" height="3" fill="#b89878"/><rect x="48" y="27" width="1" height="1" fill="#8a6a50"/><rect x="25" y="26" width="4" height="3" fill="#f8e8e0"/><rect x="35" y="26" width="4" height="3" fill="#f8e8e0"/><rect x="26" y="26" width="2" height="2" fill="#a07020"/><rect x="36" y="26" width="2" height="2" fill="#a07020"/><rect x="27" y="27" width="1" height="1" fill="#604010"/><rect x="37" y="27" width="1" height="1" fill="#604010"/><rect x="26" y="26" width="1" height="1" fill="#ffffff"/><rect x="36" y="26" width="1" height="1" fill="#ffffff"/><rect x="25" y="26" width="1" height="1" fill="#c08080"/><rect x="38" y="26" width="1" height="1" fill="#c08080"/><rect x="21" y="22" width="7" height="4" fill="#a84028"/><rect x="21" y="22" width="1" height="2" fill="#7a2818"/><rect x="23" y="22" width="1" height="4" fill="#c85838"/><rect x="25" y="22" width="1" height="2" fill="#7a2818"/><rect x="27" y="22" width="1" height="4" fill="#c85838"/><rect x="21" y="24" width="1" height="2" fill="#7a2818"/><rect x="24" y="24" width="1" height="2" fill="#7a2818"/><rect x="27" y="24" width="1" height="2" fill="#7a2818"/><rect x="35" y="22" width="7" height="4" fill="#a84028"/><rect x="35" y="22" width="1" height="2" fill="#7a2818"/><rect x="37" y="22" width="1" height="4" fill="#c85838"/><rect x="39" y="22" width="1" height="2" fill="#7a2818"/><rect x="41" y="22" width="1" height="4" fill="#c85838"/><rect x="35" y="24" width="1" height="2" fill="#7a2818"/><rect x="38" y="24" width="1" height="2" fill="#7a2818"/><rect x="41" y="24" width="1" height="2" fill="#7a2818"/><rect x="31" y="27" width="2" height="1" fill="#8a6a50"/><rect x="30" y="28" width="4" height="2" fill="#8a6a50"/><rect x="30" y="30" width="4" height="1" fill="#5a4030"/><rect x="30" y="33" width="4" height="2" fill="#e8d0b8"/><rect x="30" y="40" width="4" height="1" fill="#4a2020"/><rect x="17" y="8" width="30" height="14" fill="#a84028"/><rect x="17" y="8" width="1" height="2" fill="#7a2818"/><rect x="19" y="8" width="1" height="4" fill="#c85838"/><rect x="21" y="8" width="1" height="2" fill="#7a2818"/><rect x="23" y="8" width="1" height="4" fill="#c85838"/><rect x="25" y="8" width="1" height="2" fill="#7a2818"/><rect x="27" y="8" width="1" height="4" fill="#c85838"/><rect x="29" y="8" width="1" height="2" fill="#7a2818"/><rect x="31" y="8" width="1" height="4" fill="#c85838"/><rect x="33" y="8" width="1" height="2" fill="#7a2818"/><rect x="35" y="8" width="1" height="4" fill="#c85838"/><rect x="37" y="8" width="1" height="2" fill="#7a2818"/><rect x="39" y="8" width="1" height="4" fill="#c85838"/><rect x="41" y="8" width="1" height="2" fill="#7a2818"/><rect x="43" y="8" width="1" height="4" fill="#c85838"/><rect x="45" y="8" width="1" height="2" fill="#7a2818"/><rect x="17" y="20" width="1" height="2" fill="#7a2818"/><rect x="20" y="20" width="1" height="2" fill="#7a2818"/><rect x="23" y="20" width="1" height="2" fill="#7a2818"/><rect x="26" y="20" width="1" height="2" fill="#7a2818"/><rect x="29" y="20" width="1" height="2" fill="#7a2818"/><rect x="32" y="20" width="1" height="2" fill="#7a2818"/><rect x="35" y="20" width="1" height="2" fill="#7a2818"/><rect x="38" y="20" width="1" height="2" fill="#7a2818"/><rect x="41" y="20" width="1" height="2" fill="#7a2818"/><rect x="44" y="20" width="1" height="2" fill="#7a2818"/><rect x="26" y="9" width="4" height="4" fill="#c85838"/><rect x="16" y="14" width="6" height="28" fill="#a84028"/><rect x="16" y="14" width="1" height="2" fill="#7a2818"/><rect x="18" y="14" width="1" height="4" fill="#c85838"/><rect x="20" y="14" width="1" height="2" fill="#7a2818"/><rect x="16" y="40" width="1" height="2" fill="#7a2818"/><rect x="19" y="40" width="1" height="2" fill="#7a2818"/><rect x="17" y="15" width="2" height="4" fill="#c85838"/><rect x="42" y="14" width="6" height="28" fill="#a84028"/><rect x="42" y="14" width="1" height="2" fill="#7a2818"/><rect x="44" y="14" width="1" height="4" fill="#c85838"/><rect x="46" y="14" width="1" height="2" fill="#7a2818"/><rect x="42" y="40" width="1" height="2" fill="#7a2818"/><rect x="45" y="40" width="1" height="2" fill="#7a2818"/><rect x="43" y="15" width="2" height="4" fill="#c85838"/><rect x="22" y="38" width="20" height="22" fill="#a84028"/><rect x="22" y="38" width="1" height="2" fill="#7a2818"/><rect x="24" y="38" width="1" height="4" fill="#c85838"/><rect x="26" y="38" width="1" height="2" fill="#7a2818"/><rect x="28" y="38" width="1" height="4" fill="#c85838"/><rect x="30" y="38" width="1" height="2" fill="#7a2818"/><rect x="32" y="38" width="1" height="4" fill="#c85838"/><rect x="34" y="38" width="1" height="2" fill="#7a2818"/><rect x="36" y="38" width="1" height="4" fill="#c85838"/><rect x="38" y="38" width="1" height="2" fill="#7a2818"/><rect x="40" y="38" width="1" height="4" fill="#c85838"/><rect x="22" y="58" width="1" height="2" fill="#7a2818"/><rect x="25" y="58" width="1" height="2" fill="#7a2818"/><rect x="28" y="58" width="1" height="2" fill="#7a2818"/><rect x="31" y="58" width="1" height="2" fill="#7a2818"/><rect x="34" y="58" width="1" height="2" fill="#7a2818"/><rect x="37" y="58" width="1" height="2" fill="#7a2818"/><rect x="40" y="58" width="1" height="2" fill="#7a2818"/><rect x="24" y="56" width="16" height="8" fill="#a84028"/><rect x="24" y="56" width="1" height="2" fill="#7a2818"/><rect x="26" y="56" width="1" height="4" fill="#c85838"/><rect x="28" y="56" width="1" height="2" fill="#7a2818"/><rect x="30" y="56" width="1" height="4" fill="#c85838"/><rect x="32" y="56" width="1" height="2" fill="#7a2818"/><rect x="34" y="56" width="1" height="4" fill="#c85838"/><rect x="36" y="56" width="1" height="2" fill="#7a2818"/><rect x="38" y="56" width="1" height="4" fill="#c85838"/><rect x="24" y="62" width="1" height="2" fill="#7a2818"/><rect x="27" y="62" width="1" height="2" fill="#7a2818"/><rect x="30" y="62" width="1" height="2" fill="#7a2818"/><rect x="33" y="62" width="1" height="2" fill="#7a2818"/><rect x="36" y="62" width="1" height="2" fill="#7a2818"/><rect x="39" y="62" width="1" height="2" fill="#7a2818"/><rect x="14" y="16" width="36" height="4" fill="#6a6a70"/><rect x="15" y="17" width="1" height="1" fill="#8a8a90"/><rect x="19" y="17" width="1" height="1" fill="#8a8a90"/><rect x="23" y="17" width="1" height="1" fill="#8a8a90"/><rect x="27" y="17" width="1" height="1" fill="#8a8a90"/><rect x="31" y="17" width="1" height="1" fill="#8a8a90"/><rect x="35" y="17" width="1" height="1" fill="#8a8a90"/><rect x="39" y="17" width="1" height="1" fill="#8a8a90"/><rect x="43" y="17" width="1" height="1" fill="#8a8a90"/><rect x="47" y="17" width="1" height="1" fill="#8a8a90"/><rect x="15" y="16" width="34" height="1" fill="#2a2a30"/><rect x="15" y="19" width="34" height="1" fill="#2a2a30"/><rect x="22" y="17" width="1" height="1" fill="#9a50b0"/><rect x="27" y="17" width="1" height="1" fill="#ba70d0"/><rect x="36" y="17" width="1" height="1" fill="#9a50b0"/><rect x="41" y="17" width="1" height="1" fill="#ba70d0"/><rect x="22" y="4" width="20" height="4" fill="#6a6a70"/><rect x="23" y="5" width="1" height="1" fill="#8a8a90"/><rect x="27" y="5" width="1" height="1" fill="#8a8a90"/><rect x="31" y="5" width="1" height="1" fill="#8a8a90"/><rect x="35" y="5" width="1" height="1" fill="#8a8a90"/><rect x="39" y="5" width="1" height="1" fill="#8a8a90"/><rect x="20" y="8" width="24" height="4" fill="#6a6a70"/><rect x="21" y="9" width="1" height="1" fill="#8a8a90"/><rect x="25" y="9" width="1" height="1" fill="#8a8a90"/><rect x="29" y="9" width="1" height="1" fill="#8a8a90"/><rect x="33" y="9" width="1" height="1" fill="#8a8a90"/><rect x="37" y="9" width="1" height="1" fill="#8a8a90"/><rect x="41" y="9" width="1" height="1" fill="#8a8a90"/><rect x="18" y="12" width="28" height="5" fill="#6a6a70"/><rect x="19" y="13" width="1" height="1" fill="#8a8a90"/><rect x="19" y="16" width="1" height="1" fill="#8a8a90"/><rect x="23" y="13" width="1" height="1" fill="#8a8a90"/><rect x="23" y="16" width="1" height="1" fill="#8a8a90"/><rect x="27" y="13" width="1" height="1" fill="#8a8a90"/><rect x="27" y="16" width="1" height="1" fill="#8a8a90"/><rect x="31" y="13" width="1" height="1" fill="#8a8a90"/><rect x="31" y="16" width="1" height="1" fill="#8a8a90"/><rect x="35" y="13" width="1" height="1" fill="#8a8a90"/><rect x="35" y="16" width="1" height="1" fill="#8a8a90"/><rect x="39" y="13" width="1" height="1" fill="#8a8a90"/><rect x="39" y="16" width="1" height="1" fill="#8a8a90"/><rect x="43" y="13" width="1" height="1" fill="#8a8a90"/><rect x="43" y="16" width="1" height="1" fill="#8a8a90"/><rect x="22" y="3" width="20" height="1" fill="#2a2a30"/><rect x="20" y="7" width="24" height="1" fill="#2a2a30"/><rect x="18" y="11" width="28" height="1" fill="#2a2a30"/><rect x="28" y="0" width="8" height="5" fill="#4a4a50"/><rect x="29" y="0" width="6" height="4" fill="#6a6a70"/><rect x="30" y="0" width="4" height="4" fill="#4060a0"/><rect x="31" y="0" width="2" height="3" fill="#5080d0"/><rect x="32" y="0" width="1" height="1" fill="#80b0f0"/><rect x="31" y="1" width="1" height="1" fill="#ffffff"/><rect x="36" y="8" width="5" height="5" fill="#5a3070"/><rect x="37" y="9" width="3" height="3" fill="#7a4090"/><rect x="38" y="10" width="1" height="1" fill="#ba70d0"/><rect x="38" y="7" width="1" height="1" fill="#9a50b0"/><rect x="35" y="10" width="1" height="1" fill="#9a50b0"/><rect x="41" y="10" width="1" height="1" fill="#9a50b0"/><rect x="38" y="13" width="1" height="1" fill="#9a50b0"/><rect x="40" y="8" width="1" height="1" fill="#ffffff"/><rect x="36" y="12" width="1" height="1" fill="#ffffff"/><rect x="24" y="10" width="4" height="1" fill="#9a50b0"/>
<rect x="24" y="11" width="4" height="1" fill="#9a50b0"/>
<rect x="24" y="12" width="4" height="1" fill="#9a50b0"/>
<rect x="26" y="11" width="2" height="1" fill="#4a4a50"/>
<rect x="24" y="4" width="1" height="1" fill="#5a3070"/><rect x="27" y="2" width="1" height="1" fill="#7a4090"/><rect x="32" y="1" width="1" height="1" fill="#9a50b0"/><rect x="37" y="2" width="1" height="1" fill="#7a4090"/><rect x="40" y="4" width="1" height="1" fill="#5a3070"/><rect x="25" y="8" width="1" height="1" fill="#7a4090"/><rect x="39" y="8" width="1" height="1" fill="#7a4090"/><rect x="22" y="50" width="20" height="14" fill="#6a6a70"/><rect x="23" y="51" width="1" height="1" fill="#8a8a90"/><rect x="23" y="54" width="1" height="1" fill="#8a8a90"/><rect x="23" y="57" width="1" height="1" fill="#8a8a90"/><rect x="23" y="60" width="1" height="1" fill="#8a8a90"/><rect x="23" y="63" width="1" height="1" fill="#8a8a90"/><rect x="27" y="51" width="1" height="1" fill="#8a8a90"/><rect x="27" y="54" width="1" height="1" fill="#8a8a90"/><rect x="27" y="57" width="1" height="1" fill="#8a8a90"/><rect x="27" y="60" width="1" height="1" fill="#8a8a90"/><rect x="27" y="63" width="1" height="1" fill="#8a8a90"/><rect x="31" y="51" width="1" height="1" fill="#8a8a90"/><rect x="31" y="54" width="1" height="1" fill="#8a8a90"/><rect x="31" y="57" width="1" height="1" fill="#8a8a90"/><rect x="31" y="60" width="1" height="1" fill="#8a8a90"/><rect x="31" y="63" width="1" height="1" fill="#8a8a90"/><rect x="35" y="51" width="1" height="1" fill="#8a8a90"/><rect x="35" y="54" width="1" height="1" fill="#8a8a90"/><rect x="35" y="57" width="1" height="1" fill="#8a8a90"/><rect x="35" y="60" width="1" height="1" fill="#8a8a90"/><rect x="35" y="63" width="1" height="1" fill="#8a8a90"/><rect x="39" y="51" width="1" height="1" fill="#8a8a90"/><rect x="39" y="54" width="1" height="1" fill="#8a8a90"/><rect x="39" y="57" width="1" height="1" fill="#8a8a90"/><rect x="39" y="60" width="1" height="1" fill="#8a8a90"/><rect x="39" y="63" width="1" height="1" fill="#8a8a90"/><rect x="22" y="50" width="20" height="1" fill="#2a2a30"/><rect x="14" y="18" width="1" height="1" fill="#7a4090"/><rect x="49" y="18" width="1" height="1" fill="#7a4090"/>
</svg>