<svg xmlns="http://www.w3.org/2000/svg" viewBox="0 0 64 64" shape-rendering="crispEdges">
<rect x="0" y="0" width="64" height="64" fill="#1a1a20"/><rect x="19" y="50" width="26" height="14" fill="#6a6a70"/><rect x="17" y="52" width="2" height="12" fill="#6a6a70"/><rect x="45" y="52" width="2" height="12" fill="#6a6a70"/><rect x="20" y="51" width="3" height="13" fill="#8a8a90"/><rect x="27" y="48" width="10" height="16" fill="#5a3a2a"/><rect x="28" y="48" width="8" height="16" fill="#8b6a4a"/><rect x="29" y="48" width="6" height="16" fill="#c9a07a"/><rect x="30" y="48" width="3" height="16" fill="#e0c0a0"/><rect x="27" y="15" width="10" height="1" fill="#5a3a2a"/>
<rect x="25" y="16" width="14" height="1" fill="#5a3a2a"/>
<rect x="24" y="17" width="16" height="1" fill="#5a3a2a"/>
<rect x="23" y="18" width="18" height="1" fill="#5a3a2a"/>
<rect x="22" y="19" width="20" height="1" fill="#5a3a2a"/>
<rect x="21" y="20" width="22" height="1" fill="#5a3a2a"/>
<rect x="20" y="21" width="24" height="1" fill="#5a3a2a"/>
<rect x="20" y="22" width="24" height="1" fill="#5a3a2a"/>
<rect x="19" y="23" width="26" height="1" fill="#5a3a2a"/>
<rect x="19" y="24" width="26" height="1" fill="#5a3a2a"/>
<rect x="18" y="25" width="28" height="1" fill="#5a3a2a"/>
<rect x="18" y="26" width="28" height="1" fill="#5a3a2a"/>
<rect x="18" y="27" width="28" height="1" fill="#5a3a2a"/>
<rect x="18" y="28" width="28" height="1" fill="#5a3a2a"/>
<rect x="17" y="29" width="30" height="1" fill="#5a3a2a"/>
<rect x="17" y="30" width="30" height="1" fill="#5a3a2a"/>
<rect x="17" y="31" width="30" height="1" fill="#5a3a2a"/>
<rect x="17" y="32" width="30" height="1" fill="#5a3a2a"/>
<rect x="17" y="33" width="30" height="1" fill="#5a3a2a"/>
<rect x="17" y="34" width="30" height="1" fill="#5a3a2a"/>
<rect x="17" y="35" width="30" height="1" fill="#5a3a2a"/>
<rect x="17" y="36" width="30" height="1" fill="#5a3a2a"/>
<rect x="17" y="37" width="30" height="1" fill="#5a3a2a"/>
<rect x="18" y="38" width="28" height="1" fill="#5a3a2a"/>
<rect x="18" y="39" width="28" height="1" fill="#5a3a2a"/>
<rect x="18" y="40" width="28" height="1" fill="#5a3a2a"/>
<rect x="18" y="41" width="28" height="1" fill="#5a3a2a"/>
<rect x="19" y="42" width="26" height="1" fill="#5a3a2a"/>
<rect x="19" y="43" width="26" height="1" fill="#5a3a2a"/>
<rect x="20" y="44" width="24" height="1" fill="#5a3a2a"/>
<rect x="20" y="45" width="24" height="1" fill="#5a3a2a"/>
<rect x="21" y="46" width="22" height="1" fill="#5a3a2a"/>
<rect x="22" y="47" width="20" height="1" fill="#5a3a2a"/>
<rect x="23" y="48" width="18" height="1" fill="#5a3a2a"/>
<rect x="24" y="49" width="16" height="1" fill="#5a3a2a"/>
<rect x="25" y="50" width="14" height="1" fill="#5a3a2a"/>
<rect x="27" y="51" width="10" height="1" fill="#5a3a2a"/>
<rect x="27" y="15" width="10" height="1" fill="#8b6a4a"/>
<rect x="26" y="16" width="12" height="1" fill="#8b6a4a"/>
<rect x="24" y="17" width="16" height="1" fill="#8b6a4a"/>
<rect x="23" y="18" width="18" height="1" fill="#8b6a4a"/>
<rect x="22" y="19" width="20" height="1" fill="#8b6a4a"/>
<rect x="22" y="20" width="20" height="1" fill="#8b6a4a"/>
<rect x="21" y="21" width="22" height="1" fill="#8b6a4a"/>
<rect x="20" y="22" width="24" height="1" fill="#8b6a4a"/>
<rect x="20" y="23" width="24" height="1" fill="#8b6a4a"/>
<rect x="19" y="24" width="26" height="1" fill="#8b6a4a"/>
<rect x="19" y="25" width="26" height="1" fill="#8b6a4a"/>
<rect x="19" y="26" width="26" height="1" fill="#8b6a4a"/>
<rect x="19" y="27" width="26" height="1" fill="#8b6a4a"/>
<rect x="18" y="28" width="28" height="1" fill="#8b6a4a"/>
<rect x="18" y="29" width="28" height="1" fill="#8b6a4a"/>
<rect x="18" y="30" width="28" height="1" fill="#8b6a4a"/>
<rect x="18" y="31" width="28" height="1" fill="#8b6a4a"/>
<rect x="18" y="32" width="28" height="1" fill="#8b6a4a"/>
<rect x="18" y="33" width="28" height="1" fill="#8b6a4a"/>
<rect x="18" y="34" width="28" height="1" fill="#8b6a4a"/>
<rect x="18" y="35" width="28" height="1" fill="#8b6a4a"/>
<rect x="18" y="36" width="28" height="1" fill="#8b6a4a"/>
<rect x="19" y="37" width="26" height="1" fill="#8b6a4a"/>
<rect x="19" y="38" width="26" height="1" fill="#8b6a4a"/>
<rect x="19" y="39" width="26" height="1" fill="#8b6a4a"/>
<rect x="19" y="40" width="26" height="1" fill="#8b6a4a"/>
<rect x="20" y="41" width="24" height="1" fill="#8b6a4a"/>
<rect x="20" y="42" width="24" height="1" fill="#8b6a4a"/>
<rect x="21" y="43" width="22" height="1" fill="#8b6a4a"/>
<rect x="22" y="44" width="20" height="1" fill="#8b6a4a"/>
<rect x="22" y="45" width="20" height="1" fill="#8b6a4a"/>
<rect x="23" y="46" width="18" height="1" fill="#8b6a4a"/>
<rect x="24" y="47" width="16" height="1" fill="#8b6a4a"/>
<rect x="26" y="48" width="12" height="1" fill="#8b6a4a"/>
<rect x="27" y="49" width="10" height="1" fill="#8b6a4a"/>
<rect x="28" y="15" width="8" height="1" fill="#c9a07a"/>
<rect x="26" y="16" width="12" height="1" fill="#c9a07a"/>
<rect x="25" y="17" width="14" height="1" fill="#c9a07a"/>
<rect x="24" y="18" width="16" height="1" fill="#c9a07a"/>
<rect x="23" y="19" width="18" height="1" fill="#c9a07a"/>
<rect x="22" y="20" width="20" height="1" fill="#c9a07a"/>
<rect x="21" y="21" width="22" height="1" fill="#c9a07a"/>
<rect x="21" y="22" width="22" height="1" fill="#c9a07a"/>
<rect x="21" y="23" width="22" height="1" fill="#c9a07a"/>
<rect x="20" y="24" width="24" height="1" fill="#c9a07a"/>
<rect x="20" y="25" width="24" height="1" fill="#c9a07a"/>
<rect x="20" y="26" width="24" height="1" fill="#c9a07a"/>
<rect x="19" y="27" width="26" height="1" fill="#c9a07a"/>
<rect x="19" y="28" width="26" height="1" fill="#c9a07a"/>
<rect x="19" y="29" width="26" height="1" fill="#c9a07a"/>
<rect x="19" y="30" width="26" height="1" fill="#c9a07a"/>
<rect x="19" y="31" width="26" height="1" fill="#c9a07a"/>
<rect x="19" y="32" width="26" height="1" fill="#c9a07a"/>
<rect x="19" y="33" width="26" height="1" fill="#c9a07a"/>
<rect x="19" y="34" width="26" height="1" fill="#c9a07a"/>
<rect x="19" y="35" width="26" height="1" fill="#c9a07a"/>
<rect x="20" y="36" width="24" height="1" fill="#c9a07a"/>
<rect x="20" y="37" width="24" height="1" fill="#c9a07a"/>
<rect x="20" y="38" width="24" height="1" fill="#c9a07a"/>
<rect x="21" y="39" width="22" height="1" fill="#c9a07a"/>
<rect x="21" y="40" width="22" height="1" fill="#c9a07a"/>
<rect x="21" y="41" width="22" height="1" fill="#c9a07a"/>
<rect x="22" y="42" width="20" height="1" fill="#c9a07a"/>
<rect x="23" y="43" width="18" height="1" fill="#c9a07a"/>
<rect x="24" y="44" width="16" height="1" fill="#c9a07a"/>
<rect x="25" y="45" width="14" height="1" fill="#c9a07a"/>
<rect x="26" y="46" width="12" height="1" fill="#c9a07a"/>
<rect x="28" y="47" width="8" height="1" fill="#c9a07a"/>
<rect x="28" y="16" width="8" height="1" fill="#e0c0a0"/>
<rect x="27" y="17" width="10" height="1" fill="#e0c0a0"/>
<rect x="25" y="18" width="14" height="1" fill="#e0c0a0"/>
<rect x="25" y="19" width="14" height="1" fill="#e0c0a0"/>
<rect x="24" y="20" width="16" height="1" fill="#e0c0a0"/>
<rect x="23" y="21" width="18" height="1" fill="#e0c0a0"/>
<rect x="23" y="22" width="18" height="1" fill="#e0c0a0"/>
<rect x="22" y="23" width="20" height="1" fill="#e0c0a0"/>
<rect x="22" y="24" width="20" height="1" fill="#e0c0a0"/>
<rect x="22" y="25" width="20" height="1" fill="#e0c0a0"/>
<rect x="21" y="26" width="22" height="1" fill="#e0c0a0"/>
<rect x="21" y="27" width="22" height="1" fill="#e0c0a0"/>
<rect x="21" y="28" width="22" height="1" fill="#e0c0a0"/>
<rect x="21" y="29" width="22" height="1" fill="#e0c0a0"/>
<rect x="21" y="30" width="22" height="1" fill="#e0c0a0"/>
<rect x="21" y="31" width="22" height="1" fill="#e0c0a0"/>
<rect x="21" y="32" width="22" height="1" fill="#e0c0a0"/>
<rect x="21" y="33" width="22" height="1" fill="#e0c0a0"/>
<rect x="21" y="34" width="22" height="1" fill="#e0c0a0"/>
<rect x="22" y="35" width="20" height="1" fill="#e0c0a0"/>
<rect x="22" y="36" width="20" height="1" fill="#e0c0a0"/>
<rect x="22" y="37" width="20" height="1" fill="#e0c0a0"/>
<rect x="23" y="38" width="18" height="1" fill="#e0c0a0"/>
<rect x="23" y="39" width="18" height="1" fill="#e0c0a0"/>
<rect x="24" y="40" width="16" height="1" fill="#e0c0a0"/>
<rect x="25" y="41" width="14" height="1" fill="#e0c0a0"/>
<rect x="25" y="42" width="14" height="1" fill="#e0c0a0"/>
<rect x="27" y="43" width="10" height="1" fill="#e0c0a0"/>
<rect x="28" y="44" width="8" height="1" fill="#e0c0a0"/>
<rect x="29" y="21" width="6" height="1" fill="#f0d8c0"/>
<rect x="28" y="22" width="8" height="1" fill="#f0d8c0"/>
<rect x="27" y="23" width="10" height="1" fill="#f0d8c0"/>
<rect x="27" y="24" width="10" height="1" fill="#f0d8c0"/>
<rect x="26" y="25" width="12" height="1" fill="#f0d8c0"/>
<rect x="26" y="26" width="12" height="1" fill="#f0d8c0"/>
<rect x="26" y="27" width="12" height="1" fill="#f0d8c0"/>
<rect x="26" y="28" width="12" height="1" fill="#f0d8c0"/>
<rect x="26" y="29" width="12" height="1" fill="#f0d8c0"/>
<rect x="26" y="30" width="12" height="1" fill="#f0d8c0"/>
<rect x="26" y="31" width="12" height="1" fill="#f0d8c0"/>
<rect x="27" y="32" width="10" height="1" fill="#f0d8c0"/>
<rect x="27" y="33" width="10" height="1" fill="#f0d8c0"/>
<rect x="28" y="34" width="8" height="1" fill="#f0d8c0"/>
<rect x="29" y="35" width="6" height="1" fill="#f0d8c0"/>
<rect x="20" y="32" width="3" height="1" fill="#e0c0a0"/><rect x="41" y="32" width="3" height="1" fill="#e0c0a0"/><rect x="16" y="28" width="2" height="5" fill="#c9a07a"/><rect x="15" y="29" width="1" height="3" fill="#c9a07a"/><rect x="17" y="30" width="1" height="1" fill="#8b6a4a"/><rect x="46" y="28" width="2" height="5" fill="#c9a07a"/><rect x="48" y="29" width="1" height="3" fill="#c9a07a"/><rect x="46" y="30" width="1" height="1" fill="#8b6a4a"/><rect x="25" y="27" width="4" height="3" fill="#f0f0e8"/><rect x="35" y="27" width="4" height="3" fill="#f0f0e8"/><rect x="26" y="27" width="2" height="2" fill="#5a3020"/><rect x="36" y="27" width="2" height="2" fill="#5a3020"/><rect x="27" y="28" width="1" height="1" fill="#2a1810"/><rect x="37" y="28" width="1" height="1" fill="#2a1810"/><rect x="26" y="27" width="1" height="1" fill="#ffffff"/><rect x="36" y="27" width="1" height="1" fill="#ffffff"/><rect x="24" y="24" width="5" height="1" fill="#3a2818"/><rect x="35" y="24" width="5" height="1" fill="#3a2818"/><rect x="32" y="30" width="1" height="1" fill="#8b6a4a"/><rect x="31" y="31" width="2" height="1" fill="#8b6a4a"/><rect x="31" y="32" width="3" height="1" fill="#8b6a4a"/><rect x="32" y="32" width="1" height="1" fill="#f0d8c0"/><rect x="30" y="40" width="4" height="1" fill="#4a2020"/><rect x="18" y="8" width="4" height="12" fill="#5a4028"/><rect x="18" y="8" width="1" height="2" fill="#3a2818"/><rect x="20" y="8" width="1" height="4" fill="#7a5838"/><rect x="18" y="18" width="1" height="2" fill="#3a2818"/><rect x="21" y="18" width="1" height="2" fill="#3a2818"/><rect x="22" y="10" width="4" height="10" fill="#5a4028"/><rect x="22" y="10" width="1" height="2" fill="#3a2818"/><rect x="24" y="10" width="1" height="4" fill="#7a5838"/><rect x="22" y="18" width="1" height="2" fill="#3a2818"/><rect x="25" y="18" width="1" height="2" fill="#3a2818"/><rect x="26" y="8" width="4" height="12" fill="#5a4028"/><rect x="26" y="8" width="1" height="2" fill="#3a2818"/><rect x="28" y="8" width="1" height="4" fill="#7a5838"/><rect x="26" y="18" width="1" height="2" fill="#3a2818"/><rect x="29" y="18" width="1" height="2" fill="#3a2818"/><rect x="30" y="10" width="4" height="10" fill="#5a4028"/><rect x="30" y="10" width="1" height="2" fill="#3a2818"/><rect x="32" y="10" width="1" height="4" fill="#7a5838"/><rect x="30" y="18" width="1" height="2" fill="#3a2818"/><rect x="33" y="18" width="1" height="2" fill="#3a2818"/><rect x="34" y="8" width="4" height="12" fill="#5a4028"/><rect x="34" y="8" width="1" height="2" fill="#3a2818"/><rect x="36" y="8" width="1" height="4" fill="#7a5838"/><rect x="34" y="18" width="1" height="2" fill="#3a2818"/><rect x="37" y="18" width="1" height="2" fill="#3a2818"/><rect x="38" y="10" width="4" height="10" fill="#5a4028"/><rect x="38" y="10" width="1" height="2" fill="#3a2818"/><rect x="40" y="10" width="1" height="4" fill="#7a5838"/><rect x="38" y="18" width="1" height="2" fill="#3a2818"/><rect x="41" y="18" width="1" height="2" fill="#3a2818"/><rect x="42" y="8" width="4" height="12" fill="#5a4028"/><rect x="42" y="8" width="1" height="2" fill="#3a2818"/><rect x="44" y="8" width="1" height="4" fill="#7a5838"/><rect x="42" y="18" width="1" height="2" fill="#3a2818"/><rect x="45" y="18" width="1" height="2" fill="#3a2818"/><rect x="26" y="9" width="4" height="4" fill="#7a5838"/><rect x="17" y="14" width="5" height="24" fill="#5a4028"/><rect x="17" y="14" width="1" height="2" fill="#3a2818"/><rect x="19" y="14" width="1" height="4" fill="#7a5838"/><rect x="21" y="14" width="1" height="2" fill="#3a2818"/><rect x="17" y="36" width="1" height="2" fill="#3a2818"/><rect x="20" y="36" width="1" height="2" fill="#3a2818"/><rect x="18" y="15" width="2" height="4" fill="#7a5838"/><rect x="42" y="14" width="5" height="24" fill="#5a4028"/><rect x="42" y="14" width="1" height="2" fill="#3a2818"/><rect x="44" y="14" width="1" height="4" fill="#7a5838"/><rect x="46" y="14" width="1" height="2" fill="#3a2818"/><rect x="42" y="36" width="1" height="2" fill="#3a2818"/><rect x="45" y="36" width="1" height="2" fill="#3a2818"/><rect x="43" y="15" width="2" height="4" fill="#7a5838"/><rect x="18" y="8" width="28" height="16" fill="#3a3a40"/><rect x="19" y="9" width="1" height="1" fill="#4a4a50"/><rect x="19" y="12" width="1" height="1" fill="#4a4a50"/><rect x="19" y="15" width="1" height="1" fill="#4a4a50"/><rect x="19" y="18" width="1" height="1" fill="#4a4a50"/><rect x="19" y="21" width="1" height="1" fill="#4a4a50"/><rect x="23" y="9" width="1" height="1" fill="#4a4a50"/><rect x="23" y="12" width="1" height="1" fill="#4a4a50"/><rect x="23" y="15" width="1" height="1" fill="#4a4a50"/><rect x="23" y="18" width="1" height="1" fill="#4a4a50"/><rect x="23" y="21" width="1" height="1" fill="#4a4a50"/><rect x="27" y="9" width="1" height="1" fill="#4a4a50"/><rect x="27" y="12" width="1" height="1" fill="#4a4a50"/><rect x="27" y="15" width="1" height="1" fill="#4a4a50"/><rect x="27" y="18" width="1" height="1" fill="#4a4a50"/><rect x="27" y="21" width="1" height="1" fill="#4a4a50"/><rect x="31" y="9" width="1" height="1" fill="#4a4a50"/><rect x="31" y="12" width="1" height="1" fill="#4a4a50"/><rect x="31" y="15" width="1" height="1" fill="#4a4a50"/><rect x="31" y="18" width="1" height="1" fill="#4a4a50"/><rect x="31" y="21" width="1" height="1" fill="#4a4a50"/><rect x="35" y="9" width="1" height="1" fill="#4a4a50"/><rect x="35" y="12" width="1" height="1" fill="#4a4a50"/><rect x="35" y="15" width="1" height="1" fill="#4a4a50"/><rect x="35" y="18" width="1" height="1" fill="#4a4a50"/><rect x="35" y="21" width="1" height="1" fill="#4a4a50"/><rect x="39" y="9" width="1" height="1" fill="#4a4a50"/><rect x="39" y="12" width="1" height="1" fill="#4a4a50"/><rect x="39" y="15" width="1" height="1" fill="#4a4a50"/><rect x="39" y="18" width="1" height="1" fill="#4a4a50"/><rect x="39" y="21" width="1" height="1" fill="#4a4a50"/><rect x="43" y="9" width="1" height="1" fill="#4a4a50"/><rect x="43" y="12" width="1" height="1" fill="#4a4a50"/><rect x="43" y="15" width="1" height="1" fill="#4a4a50"/><rect x="43" y="18" width="1" height="1" fill="#4a4a50"/><rect x="43" y="21" width="1" height="1" fill="#4a4a50"/><rect x="18" y="7" width="28" height="1" fill="#1a1a20"/><rect x="19" y="30" width="26" height="20" fill="#3a3a40"/><rect x="20" y="31" width="1" height="1" fill="#4a4a50"/><rect x="20" y="34" width="1" height="1" fill="#4a4a50"/><rect x="20" y="37" width="1" height="1" fill="#4a4a50"/><rect x="20" y="40" width="1" height="1" fill="#4a4a50"/><rect x="20" y="43" width="1" height="1" fill="#4a4a50"/><rect x="20" y="46" width="1" height="1" fill="#4a4a50"/><rect x="20" y="49" width="1" height="1" fill="#4a4a50"/><rect x="24" y="31" width="1" height="1" fill="#4a4a50"/><rect x="24" y="34" width="1" height="1" fill="#4a4a50"/><rect x="24" y="37" width="1" height="1" fill="#4a4a50"/><rect x="24" y="40" width="1" height="1" fill="#4a4a50"/><rect x="24" y="43" width="1" height="1" fill="#4a4a50"/><rect x="24" y="46" width="1" height="1" fill="#4a4a50"/><rect x="24" y="49" width="1" height="1" fill="#4a4a50"/><rect x="28" y="31" width="1" height="1" fill="#4a4a50"/><rect x="28" y="34" width="1" height="1" fill="#4a4a50"/><rect x="28" y="37" width="1" height="1" fill="#4a4a50"/><rect x="28" y="40" width="1" height="1" fill="#4a4a50"/><rect x="28" y="43" width="1" height="1" fill="#4a4a50"/><rect x="28" y="46" width="1" height="1" fill="#4a4a50"/><rect x="28" y="49" width="1" height="1" fill="#4a4a50"/><rect x="32" y="31" width="1" height="1" fill="#4a4a50"/><rect x="32" y="34" width="1" height="1" fill="#4a4a50"/><rect x="32" y="37" width="1" height="1" fill="#4a4a50"/><rect x="32" y="40" width="1" height="1" fill="#4a4a50"/><rect x="32" y="43" width="1" height="1" fill="#4a4a50"/><rect x="32" y="46" width="1" height="1" fill="#4a4a50"/><rect x="32" y="49" width="1" height="1" fill="#4a4a50"/><rect x="36" y="31" width="1" height="1" fill="#4a4a50"/><rect x="36" y="34" width="1" height="1" fill="#4a4a50"/><rect x="36" y="37" width="1" height="1" fill="#4a4a50"/><rect x="36" y="40" width="1" height="1" fill="#4a4a50"/><rect x="36" y="43" width="1" height="1" fill="#4a4a50"/><rect x="36" y="46" width="1" height="1" fill="#4a4a50"/><rect x="36" y="49" width="1" height="1" fill="#4a4a50"/><rect x="40" y="31" width="1" height="1" fill="#4a4a50"/><rect x="40" y="34" width="1" height="1" fill="#4a4a50"/><rect x="40" y="37" width="1" height="1" fill="#4a4a50"/><rect x="40" y="40" width="1" height="1" fill="#4a4a50"/><rect x="40" y="43" width="1" height="1" fill="#4a4a50"/><rect x="40" y="46" width="1" height="1" fill="#4a4a50"/><rect x="40" y="49" width="1" height="1" fill="#4a4a50"/><rect x="44" y="31" width="1" height="1" fill="#4a4a50"/><rect x="44" y="34" width="1" height="1" fill="#4a4a50"/><rect x="44" y="37" width="1" height="1" fill="#4a4a50"/><rect x="44" y="40" width="1" height="1" fill="#4a4a50"/><rect x="44" y="43" width="1" height="1" fill="#4a4a50"/><rect x="44" y="46" width="1" height="1" fill="#4a4a50"/><rect x="44" y="49" width="1" height="1" fill="#4a4a50"/><rect x="28" y="36" width="1" height="10" fill="#4a4a50"/><rect x="35" y="36" width="1" height="10" fill="#4a4a50"/><rect x="19" y="24" width="26" height="6" fill="#0a0a10"/><rect x="20" y="25" width="24" height="4" fill="#1a1a20"/><rect x="23" y="16" width="18" height="5" fill="#1a1a20"/><rect x="24" y="17" width="16" height="3" fill="#4a4a50"/><rect x="25" y="17" width="14" height="2" fill="#6a6a70"/><rect x="30" y="16" width="4" height="1" fill="#3a3a40"/>
<rect x="29" y="17" width="6" height="1" fill="#3a3a40"/>
<rect x="29" y="18" width="6" height="1" fill="#3a3a40"/>
<rect x="29" y="19" width="6" height="1" fill="#3a3a40"/>
<rect x="30" y="20" width="4" height="1" fill="#3a3a40"/>
<rect x="31" y="17" width="1" height="1" fill="#5a5a60"/><rect x="32" y="17" width="1" height="1" fill="#5a5a60"/><rect x="33" y="18" width="1" height="1" fill="#3a3a40"/><rect x="32" y="19" width="1" height="1" fill="#5a5a60"/><rect x="31" y="18" width="1" height="1" fill="#5a5a60"/><rect x="20" y="48" width="24" height="16" fill="#3a3a40"/><rect x="21" y="49" width="1" height="1" fill="#4a4a50"/><rect x="21" y="52" width="1" height="1" fill="#4a4a50"/><rect x="21" y="55" width="1" height="1" fill="#4a4a50"/><rect x="21" y="58" width="1" height="1" fill="#4a4a50"/><rect x="21" y="61" width="1" height="1" fill="#4a4a50"/><rect x="25" y="49" width="1" height="1" fill="#4a4a50"/><rect x="25" y="52" width="1" height="1" fill="#4a4a50"/><rect x="25" y="55" width="1" height="1" fill="#4a4a50"/><rect x="25" y="58" width="1" height="1" fill="#4a4a50"/><rect x="25" y="61" width="1" height="1" fill="#4a4a50"/><rect x="29" y="49" width="1" height="1" fill="#4a4a50"/><rect x="29" y="52" width="1" height="1" fill="#4a4a50"/><rect x="29" y="55" width="1" height="1" fill="#4a4a50"/><rect x="29" y="58" width="1" height="1" fill="#4a4a50"/><rect x="29" y="61" width="1" height="1" fill="#4a4a50"/><rect x="33" y="49" width="1" height="1" fill="#4a4a50"/><rect x="33" y="52" width="1" height="1" fill="#4a4a50"/><rect x="33" y="55" width="1" height="1" fill="#4a4a50"/><rect x="33" y="58" width="1" height="1" fill="#4a4a50"/><rect x="33" y="61" width="1" height="1" fill="#4a4a50"/><rect x="37" y="49" width="1" height="1" fill="#4a4a50"/><rect x="37" y="52" width="1" height="1" fill="#4a4a50"/><rect x="37" y="55" width="1" height="1" fill="#4a4a50"/><rect x="37" y="58" width="1" height="1" fill="#4a4a50"/><rect x="37" y="61" width="1" height="1" fill="#4a4a50"/><rect x="41" y="49" width="1" height="1" fill="#4a4a50"/><rect x="41" y="52" width="1" height="1" fill="#4a4a50"/><rect x="41" y="55" width="1" height="1" fill="#4a4a50"/><rect x="41" y="58" width="1" height="1" fill="#4a4a50"/><rect x="41" y="61" width="1" height="1" fill="#4a4a50"/><rect x="22" y="48" width="20" height="4" fill="#2a2a30"/><rect x="24" y="49" width="16" height="2" fill="#3a3a40"/><rect x="44" y="50" width="3" height="10" fill="#3a3030"/><rect x="45" y="51" width="1" height="8" fill="#5a4040"/><rect x="44" y="49" width="3" height="2" fill="#8a8a90"/><rect x="45" y="49" width="1" height="1" fill="#b0b0b8"/><rect x="18" y="52" width="1" height="1" fill="#8a8a90"/><rect x="16" y="52" width="1" height="1" fill="#5a5a60"/><rect x="20" y="52" width="1" height="1" fill="#5a5a60"/><rect x="18" y="50" width="1" height="1" fill="#5a5a60"/><rect x="18" y="54" width="1" height="1" fill="#5a5a60"/><rect x="16" y="50" width="1" height="1" fill="#3a3a40"/><rect x="20" y="50" width="1" height="1" fill="#3a3a40"/><rect x="16" y="54" width="1" height="1" fill="#3a3a40"/><rect x="20" y="54" width="1" height="1" fill="#3a3a40"/><rect x="18" y="52" width="1" height="1" fill="#d8d8e0"/><rect x="26" y="56" width="5" height="6" fill="#2a2a30"/><rect x="27" y="57" width="3" height="4" fill="#3a3a40"/><rect x="26" y="58" width="4" height="1" fill="#505050"/>
<rect x="26" y="59" width="4" height="1" fill="#505050"/>
<rect x="26" y="60" width="4" height="1" fill="#505050"/>
<rect x="28" y="58" width="1" height="1" fill="#707070"/>
</svg>